<svg xmlns="http://www.w3.org/2000/svg" viewBox="0 0 32 32" fill="none">
  <defs>
    <linearGradient id="gameFavGrad" x1="0" y1="0" x2="24" y2="24" gradientUnits="userSpaceOnUse">
      <stop offset="0%" stop-color="#0284c7" />
      <stop offset="100%" stop-color="#0ea5e9" />
    </linearGradient>
  </defs>
  <!-- Center Main Sparkle -->
  <g transform="translate(6, 4) scale(0.85)">
    <path d="M12 0L14.59 9.41L24 12L14.59 14.59L12 24L9.41 14.59L0 12L9.41 9.41L12 0Z" fill="url(#gameFavGrad)" />
  </g>
  <!-- Left Small Sparkle -->
  <g transform="translate(1, 3) scale(0.42) rotate(-15 12 12)">
    <path d="M12 0L14.59 9.41L24 12L14.59 14.59L12 24L9.41 14.59L0 12L9.41 9.41L12 0Z" fill="#0284c7" />
  </g>
  <!-- Right Medium Sparkle -->
  <g transform="translate(16, 13) scale(0.52) rotate(18 12 12)">
    <path d="M12 0L14.59 9.41L24 12L14.59 14.59L12 24L9.41 14.59L0 12L9.41 9.41L12 0Z" fill="#0ea5e9" />
  </g>
</svg>
